"Horse Outside" is a single by the Limerick group The Rubberbandits. It was released on 8 December 2010, after its accompanying music video was aired on RTÉ Television programme Republic of Telly. The video gained almost 2.5 million views in ten days on video sharing site YouTube[2] and as of December 2012 has over 9.5 million views, also gained popularity in its campaign to become the Irish Christmas number one single of 2010, ultimately finishing second.

Ripped from the Best of republic of Telly DVD (also in my torrents)

File Info:
Complete name                            : RubberBandits - Horse Outside HQ.DVDrip x264 AC3 DeViL303.mkv
Format                                   : Matroska
Format version                           : Version 1
File size                                : 65.8 MiB
Duration                                 : 3mn 41s
Overall bit rate mode                    : Variable
Overall bit rate                         : 2 496 Kbps
Encoded date                             : UTC 2013-02-23 23:39:44
Writing application                      : mkvmerge v2.5.3 ('Boogie') built on Mar  7 2009 15:00:41
Writing library                          : libebml v0.7.7 + libmatroska v0.8.1

Video
ID                                       : 1
Format                                   : AVC
Format/Info                              : Advanced Video Codec
Format profile                           : High@L3.0
Format settings, CABAC                   : Yes
Format settings, ReFrames                : 3 frames
Codec ID                                 : V_MPEG4/ISO/AVC
Duration                                 : 3mn 41s
Bit rate mode                            : Variable
Bit rate                                 : 2 303 Kbps
Maximum bit rate                         : 12.0 Mbps
Width                                    : 720 pixels
Height                                   : 480 pixels
Display aspect ratio                     : 16:9
Original display aspect ratio            : 3:2
Frame rate mode                          : Constant
Frame rate                               : 29.970 fps
Standard                                 : NTSC
Color space                              : YUV
Chroma subsampling                       : 4:2:0
Bit depth                                : 8 bits
Scan type                                : Progressive
Bits/(Pixel*Frame)                       : 0.222
Stream size                              : 59.4 MiB (90%)
Writing library                          : x264 core 93 r1542M 5b86182
Encoding settings                        : cabac=1 / ref=4 / deblock=1:-1:-1 / 
Default                                  : Yes
Forced                                   : No

Audio
ID                                       : 2
Format                                   : AC-3
Format/Info                              : Audio Coding 3
Mode extension                           : CM (complete main)
Format settings, Endianness              : Big
Codec ID                                 : A_AC3
Duration                                 : 3mn 41s
Bit rate mode                            : Constant
Bit rate                                 : 192 Kbps
Channel(s)                               : 2 channels
Channel positions                        : Front: L R
Sampling rate                            : 48.0 KHz
Bit depth                                : 16 bits
Compression mode                         : Lossy
Stream size                              : 5.06 MiB (8%)
Default                                  : Yes
Forced                                   : No

Text
ID                                       : 3
Format                                   : SSA
Codec ID                                 : S_TEXT/SSA
Codec ID/Info                            : Sub Station Alpha
Compression mode                         : Lossless
Default                                  : Yes
Forced                                   : No

Menu
00:00:00.000                             : en:Chapter 1n[00:00:00]
00:00:20.150                             : en:Chapter 2n[00:00:20]
00:00:40.300                             : en:Chapter 3n[00:00:40]
00:01:00.451                             : en:Chapter 4n[00:01:00]
00:01:20.601                             : en:Chapter 5n[00:01:20]
00:01:40.751                             : en:Chapter 6n[00:01:40]
00:02:00.902                             : en:Chapter 7n[00:02:00]
00:02:21.052                             : en:Chapter 8n[00:02:21]
00:02:41.202                             : en:Chapter 9n[00:02:41]
00:03:01.353                             : en:Chapter 10n[00:03:01]
00:03:21.503                             : en:Chapter 11n[00:03:21]
00:03:39.653                             : en:Chapter 12n[00:03:39]



